<svg width="20" height="16" viewBox="0 0 20 16" fill="none" xmlns="http://www.w3.org/2000/svg">
<path d="M15.5 7C13.0125 7 11 9.0125 11 11.5C11 13.9875 13.0125 16 15.5 16C17.9875 16 20 13.9875 20 11.5C20 9.0125 17.9875 7 15.5 7ZM17.5 11.6969C17.5 11.8625 17.3625 12 17.1969 12H15.3031C15.1375 12 15 11.8625 15 11.6969V9.30313C15 9.1375 15.1375 9 15.3031 9H15.6969C15.8625 9 16 9.1375 16 9.30313V11H17.1969C17.3625 11 17.5 11.1375 17.5 11.3031V11.6969ZM10 11.5C10 10.6313 10.2094 9.80937 10.5688 9.07812C10.3188 9.03125 10.0625 9 9.8 9H9.27812C8.58437 9.31875 7.8125 9.5 7 9.5C6.1875 9.5 5.41875 9.31875 4.72188 9H4.2C1.88125 9 0 10.8812 0 13.2V14.5C0 15.3281 0.671875 16 1.5 16H12.3469C10.9313 15.0031 10 13.3594 10 11.5ZM7 8C9.20937 8 11 6.20937 11 4C11 1.79063 9.20937 0 7 0C4.79063 0 3 1.79063 3 4C3 6.20937 4.79063 8 7 8Z" fill="#181823"/>
</svg>
